<mxfile host="65bd71144e" modified="2021-02-03T12:06:39.585Z" agent="5.0 (Windows NT 10.0; Win64; x64) AppleWebKit/537.36 (KHTML, like Gecko) Code/1.52.1 Chrome/83.0.4103.122 Electron/9.3.5 Safari/537.36" version="13.10.0" etag="jbSBL2MefDgdbcsMN0Ty" type="embed">
    <diagram id="8-CsS9GZiLQn02CmQDSF" name="teacher_students">
        <mxGraphModel dx="884" dy="766" grid="1" gridSize="10" guides="1" tooltips="1" connect="1" arrows="1" fold="1" page="1" pageScale="1" pageWidth="827" pageHeight="1169" math="0" shadow="0">
            <root>
                <mxCell id="0"/>
                <mxCell id="1" parent="0"/>
                <mxCell id="2" value="Class" style="rounded=0;whiteSpace=wrap;html=1;verticalAlign=top;" vertex="1" parent="1">
                    <mxGeometry x="370" y="230" width="440" height="240" as="geometry"/>
                </mxCell>
                <mxCell id="3" value="Teacher" style="shape=umlActor;verticalLabelPosition=bottom;verticalAlign=top;html=1;outlineConnect=0;" vertex="1" parent="1">
                    <mxGeometry x="424" y="370" width="30" height="60" as="geometry"/>
                </mxCell>
                <mxCell id="5" value="Student" style="shape=umlActor;verticalLabelPosition=bottom;verticalAlign=top;html=1;outlineConnect=0;" vertex="1" parent="1">
                    <mxGeometry x="660" y="270" width="30" height="60" as="geometry"/>
                </mxCell>
                <mxCell id="6" value="Student" style="shape=umlActor;verticalLabelPosition=bottom;verticalAlign=top;html=1;outlineConnect=0;" vertex="1" parent="1">
                    <mxGeometry x="660" y="370" width="30" height="60" as="geometry"/>
                </mxCell>
                <mxCell id="8" value="rates" style="endArrow=classic;html=1;" edge="1" parent="1" source="3" target="6">
                    <mxGeometry width="50" height="50" relative="1" as="geometry">
                        <mxPoint x="390" y="420" as="sourcePoint"/>
                        <mxPoint x="550.3351744550068" y="377.329941853053" as="targetPoint"/>
                    </mxGeometry>
                </mxCell>
                <mxCell id="9" value="Teacher" style="shape=umlActor;verticalLabelPosition=bottom;verticalAlign=top;html=1;outlineConnect=0;" vertex="1" parent="1">
                    <mxGeometry x="424" y="270" width="30" height="60" as="geometry"/>
                </mxCell>
                <mxCell id="10" value="rates" style="endArrow=classic;html=1;" edge="1" parent="1" source="9" target="6">
                    <mxGeometry x="-0.1274" y="16" width="50" height="50" relative="1" as="geometry">
                        <mxPoint x="464" y="420.34653465346537" as="sourcePoint"/>
                        <mxPoint x="554.5433052533847" y="328.75512121690554" as="targetPoint"/>
                        <mxPoint as="offset"/>
                    </mxGeometry>
                </mxCell>
                <mxCell id="11" value="rates" style="endArrow=classic;html=1;" edge="1" parent="1" source="3" target="5">
                    <mxGeometry x="-0.1274" y="-16" width="50" height="50" relative="1" as="geometry">
                        <mxPoint x="464" y="410" as="sourcePoint"/>
                        <mxPoint x="670" y="410" as="targetPoint"/>
                        <mxPoint as="offset"/>
                    </mxGeometry>
                </mxCell>
                <mxCell id="12" value="rates" style="endArrow=classic;html=1;" edge="1" parent="1" source="9" target="5">
                    <mxGeometry width="50" height="50" relative="1" as="geometry">
                        <mxPoint x="464" y="299.5" as="sourcePoint"/>
                        <mxPoint x="670" y="299.5" as="targetPoint"/>
                    </mxGeometry>
                </mxCell>
            </root>
        </mxGraphModel>
    </diagram>
</mxfile>